{"accessors" : [{"bufferView" : 0, "byteOffset" : 0, "componentType" : 5123, "count" : 5376, "type" : "SCALAR", "max" : [4031], "min" : [0]}, {"bufferView" : 1, "byteOffset" : 0, "componentType" : 5126, "count" : 4032, "type" : "VEC3", "max" : [0.45929399132728577, 1.1695159673690796, 1.0826159715652466], "min" : [-0.459102988243103, -0.7242239713668823, -1.0826200246810913], "name" : "POSITION"}, {"bufferView" : 1, "byteOffset" : 12, "componentType" : 5126, "count" : 4032, "type" : "VEC2", "max" : [0.9943220019340515, -0.1800840049982071], "min" : [0.0009139999747276306, -0.7901650071144104], "name" : "TEXCOORD_0"}, {"bufferView" : 1, "byteOffset" : 20, "componentType" : 5126, "count" : 4032, "type" : "VEC3", "max" : [0.9999964237213135, 0.9998903274536133, 0.9984518885612488], "min" : [-0.9999693632125854, -0.9998610615730286, -0.9984514713287354], "name" : "NORMAL"}], "asset" : {"generator" : "Aspose.3D 22.1", "version" : "2.0"}, "buffers" : [{"uri" : "data:application/octet-stream;base64,", "byteLength" : 182792}], "bufferViews" : [{"buffer" : 0, "byteOffset" : 0, "byteLength" : 10752, "target" : 34963}, {"buffer" : 0, "byteOffset" : 10756, "byteLength" : 172032, "byteStride" : 32, "target" : 34962}], "meshes" : [{"primitives" : [{"attributes" : {"POSITION" : 1, "TEXCOORD_0" : 2, "NORMAL" : 3}, "indices" : 0, "mode" : 4}], "name" : ""}], "nodes" : [{"mesh" : 0, "name" : "Heart"}], "scene" : 0, "scenes" : [{"nodes" : [0]}]}